<?xml version="1.0" encoding="UTF-8" standalone="no"?>
<!-- Generator: Gravit.io -->
<svg xmlns="http://www.w3.org/2000/svg" xmlns:xlink="http://www.w3.org/1999/xlink" style="isolation:isolate" viewBox="0 0 512 512" width="512pt" height="512pt"><path d=" M 88.666 82.726 C 88.376 83.09 88.22 83.546 88.235 84.015 L 88.235 85.39 L 85.443 86.293 C 84.646 86.558 84.107 87.302 84.105 88.142 L 84.105 89.518 L 81.313 90.42 C 80.675 90.638 80.196 91.171 80.048 91.829 C 79.899 92.486 80.102 93.173 80.584 93.645 L 97.092 110.153 C 99.144 112.205 99.457 115.14 98.769 119.311 C 98.081 123.479 96.339 128.564 94.814 134.013 C 93.288 139.462 91.976 145.276 92.32 151.122 C 92.664 156.969 94.767 162.856 99.843 167.932 C 109.673 177.761 125.782 177.761 135.611 167.932 C 137.858 165.686 139.529 163.046 140.728 160.408 C 142.678 160.318 144.617 159.904 146.489 159.291 C 147.101 159.086 147.697 158.868 148.294 158.604 C 148.896 158.345 149.518 158.067 150.099 157.742 L 150.443 157.572 C 150.814 157.363 151.162 157.163 151.517 156.927 C 151.825 156.728 152.12 156.497 152.421 156.281 C 152.7 156.076 152.963 155.858 153.238 155.638 C 153.66 155.298 154.039 154.9 154.44 154.518 C 154.575 154.397 154.742 154.304 154.871 154.175 L 155.043 154.003 C 155.112 153.934 155.145 153.816 155.215 153.746 C 155.592 153.347 155.999 152.962 156.332 152.541 C 159.222 148.99 160.895 144.605 161.104 140.032 C 163.92 138.817 166.435 137.108 168.628 134.915 C 178.457 125.086 178.457 108.977 168.628 99.147 C 163.517 94.037 157.547 91.86 151.604 91.409 C 145.661 90.958 139.716 92.14 134.193 93.602 C 128.667 95.064 123.537 96.799 119.403 97.557 C 115.272 98.315 112.515 98.062 110.849 96.396 L 95.716 81.263 C 94.96 80.507 93.721 80.507 92.965 81.263 L 92.19 82.038 L 90.215 82.035 C 89.621 82.018 89.051 82.271 88.667 82.724 L 88.666 82.726 Z  M 88.065 89.518 L 90.857 88.615 C 91.654 88.347 92.19 87.604 92.192 86.766 L 92.192 85.993 L 92.963 85.992 C 93.485 85.986 93.982 85.769 94.341 85.39 L 108.097 99.147 C 111.112 102.162 115.545 102.221 120.136 101.383 C 124.724 100.545 129.824 98.755 135.182 97.343 C 140.538 95.93 146.123 94.881 151.347 95.279 C 156.569 95.675 161.426 97.448 165.877 101.899 C 174.206 110.229 174.206 123.834 165.877 132.164 C 164.323 133.717 162.652 134.948 160.846 135.905 C 160.203 131.509 158.235 127.273 154.871 123.91 C 140.829 109.868 123.273 109.593 123.273 109.593 C 122.611 109.563 121.979 109.871 121.596 110.412 C 121.185 111.005 121.137 111.777 121.473 112.416 C 121.804 113.058 122.464 113.462 123.186 113.463 C 123.186 113.463 139.202 113.744 152.12 126.661 C 155.933 130.477 157.773 135.839 157.107 141.193 C 157.06 141.542 156.998 141.879 156.935 142.223 C 156.924 142.278 156.944 142.343 156.935 142.396 C 156.827 142.903 156.698 143.405 156.548 143.9 C 156.537 143.944 156.516 143.987 156.504 144.029 C 156.059 145.51 155.424 146.926 154.614 148.242 C 154.484 148.456 154.37 148.678 154.227 148.887 C 153.667 149.716 153.034 150.493 152.334 151.209 L 151.99 151.553 C 151.609 151.923 151.238 152.295 150.831 152.627 L 150.787 152.672 C 150.33 153.04 149.847 153.341 149.367 153.659 C 149.348 153.67 149.346 153.691 149.326 153.701 C 142.538 158.139 133.307 157.374 127.357 151.424 C 120.414 144.481 116.781 135.603 116.781 135.603 C 116.53 134.902 115.901 134.405 115.161 134.323 C 114.42 134.241 113.698 134.588 113.299 135.217 C 112.977 135.75 112.929 136.405 113.171 136.979 C 113.171 136.979 116.969 146.539 124.606 154.175 C 127.969 157.539 132.205 159.507 136.6 160.15 C 135.628 161.929 134.343 163.698 132.86 165.181 C 124.53 173.511 110.925 173.511 102.595 165.181 C 98.183 160.769 96.528 156.019 96.232 150.908 C 95.936 145.797 97.113 140.343 98.597 135.045 C 100.08 129.746 101.868 124.603 102.637 119.911 C 103.406 115.221 103.09 110.648 99.843 107.402 L 85.571 93.129 L 86.732 92.741 C 87.527 92.474 88.063 91.731 88.065 90.893 L 88.065 89.518 Z " fill="rgb(153,153,153)" fill-opacity="0.05"/><path d=" M 338.726 167.334 C 339.09 167.624 339.546 167.78 340.015 167.765 L 341.39 167.765 L 342.293 170.557 C 342.558 171.354 343.302 171.893 344.142 171.895 L 345.518 171.895 L 346.42 174.687 C 346.638 175.325 347.171 175.804 347.829 175.952 C 348.486 176.101 349.173 175.898 349.645 175.416 L 366.153 158.908 C 368.205 156.856 371.14 156.543 375.311 157.231 C 379.479 157.919 384.564 159.661 390.013 161.186 C 395.462 162.712 401.276 164.024 407.122 163.68 C 412.969 163.336 418.856 161.233 423.932 156.157 C 433.761 146.327 433.761 130.218 423.932 120.389 C 421.686 118.142 419.046 116.471 416.408 115.272 C 416.318 113.322 415.904 111.383 415.291 109.511 C 415.086 108.899 414.868 108.303 414.604 107.706 C 414.345 107.104 414.067 106.482 413.742 105.901 L 413.572 105.557 C 413.363 105.186 413.163 104.838 412.927 104.483 C 412.728 104.175 412.497 103.88 412.281 103.579 C 412.076 103.3 411.858 103.037 411.638 102.762 C 411.298 102.34 410.9 101.961 410.518 101.56 C 410.397 101.425 410.304 101.258 410.175 101.129 L 410.003 100.957 C 409.934 100.888 409.816 100.855 409.746 100.785 C 409.347 100.408 408.962 100.001 408.541 99.668 C 404.99 96.778 400.605 95.105 396.032 94.896 C 394.817 92.08 393.108 89.565 390.915 87.372 C 381.086 77.543 364.977 77.543 355.147 87.372 C 350.037 92.483 347.86 98.453 347.409 104.396 C 346.958 110.339 348.14 116.284 349.602 121.807 C 351.064 127.333 352.799 132.463 353.557 136.597 C 354.315 140.728 354.062 143.485 352.396 145.151 L 337.263 160.284 C 336.507 161.04 336.507 162.279 337.263 163.035 L 338.038 163.81 L 338.035 165.785 C 338.018 166.379 338.271 166.949 338.724 167.333 L 338.726 167.334 Z  M 345.518 167.935 L 344.615 165.143 C 344.347 164.346 343.604 163.81 342.766 163.808 L 341.993 163.808 L 341.992 163.037 C 341.986 162.515 341.769 162.018 341.39 161.659 L 355.147 147.903 C 358.162 144.888 358.221 140.455 357.383 135.864 C 356.545 131.276 354.755 126.176 353.342 120.818 C 351.93 115.462 350.881 109.877 351.279 104.653 C 351.675 99.431 353.448 94.574 357.899 90.123 C 366.229 81.794 379.834 81.794 388.164 90.123 C 389.717 91.677 390.948 93.348 391.905 95.154 C 387.509 95.797 383.273 97.765 379.91 101.129 C 365.868 115.171 365.593 132.727 365.593 132.727 C 365.563 133.389 365.871 134.021 366.412 134.404 C 367.005 134.815 367.777 134.863 368.416 134.527 C 369.058 134.196 369.462 133.536 369.463 132.814 C 369.463 132.814 369.744 116.798 382.661 103.88 C 386.477 100.067 391.839 98.227 397.193 98.893 C 397.542 98.94 397.879 99.002 398.223 99.065 C 398.278 99.076 398.343 99.056 398.396 99.065 C 398.903 99.173 399.405 99.302 399.9 99.452 C 399.944 99.463 399.987 99.484 400.029 99.496 C 401.51 99.941 402.926 100.576 404.242 101.386 C 404.456 101.516 404.678 101.63 404.887 101.773 C 405.716 102.333 406.493 102.966 407.209 103.666 L 407.553 104.01 C 407.923 104.391 408.295 104.762 408.627 105.169 L 408.672 105.213 C 409.04 105.67 409.341 106.153 409.659 106.633 C 409.67 106.652 409.691 106.654 409.701 106.674 C 414.139 113.462 413.374 122.693 407.424 128.643 C 400.481 135.586 391.603 139.219 391.603 139.219 C 390.902 139.47 390.405 140.099 390.323 140.839 C 390.241 141.58 390.588 142.302 391.217 142.701 C 391.75 143.023 392.405 143.071 392.979 142.829 C 392.979 142.829 402.539 139.031 410.175 131.394 C 413.539 128.031 415.507 123.795 416.15 119.4 C 417.929 120.372 419.698 121.657 421.181 123.14 C 429.511 131.47 429.511 145.075 421.181 153.405 C 416.769 157.817 412.019 159.472 406.908 159.768 C 401.797 160.064 396.343 158.887 391.045 157.403 C 385.746 155.92 380.603 154.132 375.911 153.363 C 371.221 152.594 366.648 152.91 363.402 156.157 L 349.129 170.429 L 348.741 169.268 C 348.474 168.473 347.731 167.937 346.893 167.935 L 345.518 167.935 Z " fill="rgb(153,153,153)" fill-opacity="0.05"/><path d=" M 173.274 344.666 C 172.91 344.376 172.454 344.22 171.985 344.235 L 170.61 344.235 L 169.707 341.443 C 169.442 340.646 168.698 340.107 167.858 340.105 L 166.482 340.105 L 165.58 337.313 C 165.362 336.675 164.829 336.196 164.171 336.048 C 163.514 335.899 162.827 336.102 162.355 336.584 L 145.847 353.092 C 143.795 355.144 140.86 355.457 136.689 354.769 C 132.521 354.081 127.436 352.339 121.987 350.814 C 116.538 349.288 110.724 347.976 104.878 348.32 C 99.031 348.664 93.144 350.767 88.068 355.843 C 78.239 365.673 78.239 381.782 88.068 391.611 C 90.314 393.858 92.954 395.529 95.592 396.728 C 95.682 398.678 96.096 400.617 96.709 402.489 C 96.914 403.101 97.132 403.697 97.396 404.294 C 97.655 404.896 97.933 405.518 98.258 406.099 L 98.428 406.443 C 98.637 406.814 98.837 407.162 99.073 407.517 C 99.272 407.825 99.503 408.12 99.719 408.421 C 99.924 408.7 100.142 408.963 100.362 409.238 C 100.702 409.66 101.1 410.039 101.482 410.44 C 101.603 410.575 101.696 410.742 101.825 410.871 L 101.997 411.043 C 102.066 411.112 102.184 411.145 102.254 411.215 C 102.653 411.592 103.038 411.999 103.459 412.332 C 107.01 415.222 111.395 416.895 115.968 417.104 C 117.183 419.92 118.892 422.435 121.085 424.628 C 130.914 434.457 147.023 434.457 156.853 424.628 C 161.963 419.517 164.14 413.547 164.591 407.604 C 165.042 401.661 163.86 395.716 162.398 390.193 C 160.936 384.667 159.201 379.537 158.443 375.403 C 157.685 371.272 157.938 368.515 159.604 366.849 L 174.737 351.716 C 175.493 350.96 175.493 349.721 174.737 348.965 L 173.962 348.19 L 173.965 346.215 C 173.982 345.621 173.729 345.051 173.276 344.667 L 173.274 344.666 Z  M 166.482 344.065 L 167.385 346.857 C 167.653 347.654 168.396 348.19 169.234 348.192 L 170.007 348.192 L 170.008 348.963 C 170.014 349.485 170.231 349.982 170.61 350.341 L 156.853 364.097 C 153.838 367.112 153.779 371.545 154.617 376.136 C 155.455 380.724 157.245 385.824 158.658 391.182 C 160.07 396.538 161.119 402.123 160.721 407.347 C 160.325 412.569 158.552 417.426 154.101 421.877 C 145.771 430.206 132.166 430.206 123.836 421.877 C 122.283 420.323 121.052 418.652 120.095 416.846 C 124.491 416.203 128.727 414.235 132.09 410.871 C 146.132 396.829 146.407 379.273 146.407 379.273 C 146.437 378.611 146.129 377.979 145.588 377.596 C 144.995 377.185 144.223 377.137 143.584 377.473 C 142.942 377.804 142.538 378.464 142.537 379.186 C 142.537 379.186 142.256 395.202 129.339 408.12 C 125.523 411.933 120.161 413.773 114.807 413.107 C 114.458 413.06 114.121 412.998 113.777 412.935 C 113.722 412.924 113.657 412.944 113.604 412.935 C 113.097 412.827 112.595 412.698 112.1 412.548 C 112.056 412.537 112.013 412.516 111.971 412.504 C 110.49 412.059 109.074 411.424 107.758 410.614 C 107.544 410.484 107.322 410.37 107.113 410.227 C 106.284 409.667 105.507 409.034 104.791 408.334 L 104.447 407.99 C 104.077 407.609 103.705 407.238 103.373 406.831 L 103.328 406.787 C 102.96 406.33 102.659 405.847 102.341 405.367 C 102.33 405.348 102.309 405.346 102.299 405.326 C 97.861 398.538 98.626 389.307 104.576 383.357 C 111.519 376.414 120.397 372.781 120.397 372.781 C 121.098 372.53 121.595 371.901 121.677 371.161 C 121.759 370.42 121.412 369.698 120.783 369.299 C 120.25 368.977 119.595 368.929 119.021 369.171 C 119.021 369.171 109.461 372.969 101.825 380.606 C 98.461 383.969 96.493 388.205 95.85 392.6 C 94.071 391.628 92.302 390.343 90.819 388.86 C 82.489 380.53 82.489 366.925 90.819 358.595 C 95.231 354.183 99.981 352.528 105.092 352.232 C 110.203 351.936 115.657 353.113 120.955 354.597 C 126.254 356.08 131.397 357.868 136.089 358.637 C 140.779 359.406 145.352 359.09 148.598 355.843 L 162.871 341.571 L 163.259 342.732 C 163.526 343.527 164.269 344.063 165.107 344.065 L 166.482 344.065 Z " fill="rgb(153,153,153)" fill-opacity="0.05"/><path d=" M 423.334 429.97 C 423.624 429.606 423.78 429.15 423.765 428.681 L 423.765 427.305 L 426.557 426.403 C 427.354 426.138 427.893 425.394 427.895 424.554 L 427.895 423.178 L 430.687 422.276 C 431.325 422.058 431.804 421.524 431.952 420.867 C 432.101 420.21 431.898 419.523 431.416 419.051 L 414.908 402.543 C 412.856 400.49 412.543 397.556 413.231 393.385 C 413.919 389.217 415.661 384.132 417.186 378.683 C 418.712 373.234 420.024 367.42 419.68 361.573 C 419.336 355.727 417.233 349.84 412.157 344.764 C 402.327 334.935 386.218 334.935 376.389 344.764 C 374.142 347.01 372.471 349.65 371.272 352.288 C 369.322 352.378 367.383 352.792 365.511 353.405 C 364.899 353.61 364.303 353.828 363.706 354.092 C 363.104 354.351 362.482 354.629 361.901 354.954 L 361.557 355.124 C 361.186 355.333 360.838 355.533 360.483 355.769 C 360.175 355.967 359.88 356.199 359.579 356.415 C 359.3 356.62 359.037 356.838 358.762 357.058 C 358.34 357.398 357.961 357.796 357.56 358.178 C 357.425 358.299 357.258 358.391 357.129 358.521 L 356.957 358.693 C 356.888 358.762 356.855 358.88 356.785 358.95 C 356.408 359.349 356.001 359.734 355.668 360.155 C 352.778 363.706 351.105 368.091 350.896 372.664 C 348.08 373.879 345.565 375.588 343.372 377.78 C 333.543 387.61 333.543 403.719 343.372 413.549 C 348.483 418.659 354.453 420.836 360.396 421.287 C 366.339 421.738 372.284 420.556 377.807 419.094 C 383.333 417.632 388.463 415.897 392.597 415.139 C 396.728 414.381 399.485 414.634 401.151 416.3 L 416.284 431.433 C 417.04 432.189 418.279 432.189 419.035 431.433 L 419.81 430.658 L 421.785 430.661 C 422.379 430.678 422.949 430.425 423.333 429.972 L 423.334 429.97 Z  M 423.935 423.178 L 421.143 424.081 C 420.346 424.349 419.81 425.092 419.808 425.93 L 419.808 426.703 L 419.037 426.704 C 418.515 426.71 418.018 426.927 417.659 427.305 L 403.903 413.549 C 400.888 410.534 396.455 410.475 391.864 411.313 C 387.276 412.151 382.176 413.941 376.818 415.353 C 371.462 416.766 365.877 417.815 360.653 417.417 C 355.431 417.021 350.574 415.247 346.123 410.797 C 337.794 402.467 337.794 388.862 346.123 380.532 C 347.677 378.979 349.348 377.747 351.154 376.791 C 351.797 381.187 353.765 385.422 357.129 388.786 C 371.171 402.828 388.727 403.103 388.727 403.103 C 389.389 403.133 390.021 402.825 390.404 402.284 C 390.815 401.691 390.863 400.919 390.527 400.28 C 390.196 399.638 389.536 399.234 388.814 399.233 C 388.814 399.233 372.798 398.952 359.88 386.035 C 356.067 382.219 354.227 376.857 354.893 371.503 C 354.94 371.154 355.002 370.817 355.065 370.473 C 355.076 370.418 355.056 370.353 355.065 370.299 C 355.173 369.793 355.302 369.291 355.452 368.796 C 355.463 368.752 355.484 368.709 355.496 368.667 C 355.941 367.186 356.576 365.77 357.386 364.454 C 357.516 364.24 357.63 364.018 357.773 363.809 C 358.333 362.98 358.966 362.203 359.666 361.487 L 360.01 361.143 C 360.391 360.773 360.762 360.401 361.169 360.068 L 361.213 360.024 C 361.67 359.656 362.153 359.354 362.633 359.037 C 362.652 359.026 362.654 359.005 362.674 358.995 C 369.462 354.557 378.693 355.322 384.643 361.272 C 391.586 368.215 395.219 377.093 395.219 377.093 C 395.47 377.794 396.099 378.291 396.839 378.373 C 397.58 378.455 398.302 378.108 398.701 377.479 C 399.023 376.946 399.071 376.291 398.829 375.717 C 398.829 375.717 395.031 366.157 387.394 358.521 C 384.031 355.157 379.795 353.189 375.4 352.546 C 376.372 350.767 377.657 348.998 379.14 347.515 C 387.47 339.185 401.075 339.185 409.405 347.515 C 413.817 351.927 415.472 356.677 415.768 361.788 C 416.064 366.899 414.887 372.353 413.403 377.651 C 411.92 382.95 410.132 388.093 409.363 392.785 C 408.594 397.475 408.91 402.048 412.157 405.294 L 426.429 419.567 L 425.268 419.955 C 424.473 420.222 423.937 420.965 423.935 421.803 L 423.935 423.178 Z " fill="rgb(153,153,153)" fill-opacity="0.05"/></svg>