<svg width="128" height="128" viewBox="0 0 128 128" fill="none" xmlns="http://www.w3.org/2000/svg">
<rect width="128" height="128" fill="#FEE1AB"/>
<path d="M57.875 59C59.875 55 59.875 45 59.875 45H68.1251C68.1251 45 68.1251 55 70.1251 59C72.1251 63 78.1248 64.6667 82.1248 68C86.1248 71.3333 89.9408 79.0929 85.625 86C81.735 92.2256 73.875 91 70.875 89C67.704 93.0541 60.2893 92.9167 56.8767 89.0171C53.875 91 46.3189 92.3119 42.375 86C38.0592 79.0929 41.8752 71.3333 45.8752 68C49.8752 64.6667 55.875 63 57.875 59Z" fill="white"/>
<path d="M56.8767 75C56.8767 75 52.1098 83.5701 56.8767 89.0171M56.8767 89.0171C60.2893 92.9167 67.704 93.0541 70.875 89M56.8767 89.0171C53.875 91 46.3189 92.3119 42.375 86C38.0592 79.0929 41.8752 71.3333 45.8752 68C49.8752 64.6667 55.875 63 57.875 59C59.875 55 59.875 45 59.875 45H68.1251C68.1251 45 68.1251 55 70.1251 59C72.1251 63 78.1248 64.6667 82.1248 68C86.1248 71.3333 89.9408 79.0929 85.625 86C81.735 92.2256 73.875 91 70.875 89M70.875 89C76.1187 82.296 69.1251 71 69.1251 71" stroke="black" stroke-width="4" stroke-linecap="round" stroke-linejoin="round"/>
<circle cx="28.9688" cy="50.5" r="8.5" fill="white" stroke="black" stroke-width="4" stroke-linecap="round" stroke-linejoin="round"/>
<circle cx="99.0312" cy="50.5" r="8.5" fill="white" stroke="black" stroke-width="4" stroke-linecap="round" stroke-linejoin="round"/>
</svg>
